<svg xmlns="http://www.w3.org/2000/svg" xmlns:xlink="http://www.w3.org/1999/xlink" width="500" zoomAndPan="magnify" viewBox="0 0 375 374.999991" height="500" preserveAspectRatio="xMidYMid meet" version="1.0"><defs><g/><clipPath id="092b69abfd"><path d="M 129.796875 116.296875 L 272.203125 116.296875 L 272.203125 258.703125 L 129.796875 258.703125 Z M 129.796875 116.296875 " clip-rule="nonzero"/></clipPath><clipPath id="689e3b466b"><path d="M 201 116.296875 C 161.675781 116.296875 129.796875 148.175781 129.796875 187.5 C 129.796875 226.824219 161.675781 258.703125 201 258.703125 C 240.324219 258.703125 272.203125 226.824219 272.203125 187.5 C 272.203125 148.175781 240.324219 116.296875 201 116.296875 Z M 201 116.296875 " clip-rule="nonzero"/></clipPath><clipPath id="22fc16cbc1"><path d="M 129.796875 116.296875 L 272.191406 116.296875 L 272.191406 258.691406 L 129.796875 258.691406 Z M 129.796875 116.296875 " clip-rule="nonzero"/></clipPath><clipPath id="e85e3a0af5"><path d="M 200.996094 116.296875 C 161.671875 116.296875 129.796875 148.171875 129.796875 187.496094 C 129.796875 226.816406 161.671875 258.691406 200.996094 258.691406 C 240.316406 258.691406 272.191406 226.816406 272.191406 187.496094 C 272.191406 148.171875 240.316406 116.296875 200.996094 116.296875 Z M 200.996094 116.296875 " clip-rule="nonzero"/></clipPath><clipPath id="d2590986c0"><path d="M 113.957031 159.652344 L 288 159.652344 L 288 215.347656 L 113.957031 215.347656 Z M 113.957031 159.652344 " clip-rule="nonzero"/></clipPath><clipPath id="181fedb18d"><path d="M 177.289062 165 L 224 165 L 224 211.78125 L 177.289062 211.78125 Z M 177.289062 165 " clip-rule="nonzero"/></clipPath></defs><g clip-path="url(#092b69abfd)"><g clip-path="url(#689e3b466b)"><path fill="#ffffff" d="M 129.796875 116.296875 L 272.203125 116.296875 L 272.203125 258.703125 L 129.796875 258.703125 Z M 129.796875 116.296875 " fill-opacity="1" fill-rule="nonzero"/></g></g><g clip-path="url(#22fc16cbc1)"><g clip-path="url(#e85e3a0af5)"><path stroke-linecap="butt" transform="matrix(0.75, 0, 0, 0.75, 129.797677, 116.29768)" fill="none" stroke-linejoin="miter" d="M 94.931229 -0.00107382 C 42.498934 -0.00107382 -0.00106904 42.498929 -0.00106904 94.931224 C -0.00106904 147.358311 42.498934 189.858314 94.931229 189.858314 C 147.358316 189.858314 189.858318 147.358311 189.858318 94.931224 C 189.858318 42.498929 147.358316 -0.00107382 94.931229 -0.00107382 Z M 94.931229 -0.00107382 " stroke="#1e90ff" stroke-width="14" stroke-opacity="1" stroke-miterlimit="4"/></g></g><g clip-path="url(#d2590986c0)"><path fill="#ffffff" d="M 113.957031 159.652344 L 288 159.652344 L 288 215.347656 L 113.957031 215.347656 Z M 113.957031 159.652344 " fill-opacity="1" fill-rule="nonzero"/></g><g fill="#ffa500" fill-opacity="1"><g transform="translate(89.07895, 195.682062)"><g><path d="M 10.890625 -7.296875 L 8.265625 -15.125 L 8.21875 -15.125 L 5.359375 -7.296875 Z M 4.625 -5.171875 L 2.765625 0 L 0.296875 0 L 6.984375 -17.765625 L 9.703125 -17.765625 L 16.140625 0 L 13.515625 0 L 11.765625 -5.171875 Z M 4.625 -5.171875 "/></g></g></g><g fill="#ffa500" fill-opacity="1"><g transform="translate(105.587005, 195.682062)"><g><path d="M 4.40625 -2.046875 L 9.0625 -2.046875 C 10.675781 -2.046875 11.9375 -2.664062 12.84375 -3.90625 C 13.757812 -5.144531 14.21875 -6.835938 14.21875 -8.984375 C 14.21875 -11.097656 13.753906 -12.742188 12.828125 -13.921875 C 11.910156 -15.097656 10.585938 -15.691406 8.859375 -15.703125 L 4.40625 -15.703125 Z M 2 -17.765625 L 9.203125 -17.765625 C 11.535156 -17.765625 13.359375 -16.960938 14.671875 -15.359375 C 15.992188 -13.765625 16.65625 -11.691406 16.65625 -9.140625 C 16.65625 -6.398438 15.992188 -4.191406 14.671875 -2.515625 C 13.359375 -0.835938 11.503906 0 9.109375 0 L 2 0 Z M 2 -17.765625 "/></g></g></g><g fill="#ffa500" fill-opacity="1"><g transform="translate(123.412321, 195.682062)"><g><path d="M 13.203125 -17.765625 L 15.890625 -17.765625 L 9.375 0 L 6.859375 0 L 0.375 -17.765625 L 3.046875 -17.765625 L 8.125 -2.625 L 8.171875 -2.625 Z M 13.203125 -17.765625 "/></g></g></g><g fill="#ffa500" fill-opacity="1"><g transform="translate(139.642423, 195.682062)"><g><path d="M 15.125 0 L 2 0 L 2 -17.765625 L 14.953125 -17.765625 L 14.953125 -15.640625 L 4.40625 -15.640625 L 4.40625 -10.203125 L 14.125 -10.203125 L 14.125 -8.078125 L 4.40625 -8.078125 L 4.40625 -2.125 L 15.125 -2.125 Z M 15.125 0 "/></g></g></g><g fill="#ffa500" fill-opacity="1"><g transform="translate(155.727505, 195.682062)"><g><path d="M 13.765625 -17.765625 L 16.078125 -17.765625 L 16.078125 0 L 13.421875 0 L 4.34375 -14.359375 L 4.296875 -14.359375 L 4.296875 0 L 2 0 L 2 -17.765625 L 4.828125 -17.765625 L 13.71875 -3.421875 L 13.765625 -3.421875 Z M 13.765625 -17.765625 "/></g></g></g><g fill="#ffa500" fill-opacity="1"><g transform="translate(173.828944, 195.682062)"><g/></g></g><g fill="#ffa500" fill-opacity="1"><g transform="translate(179.871424, 195.682062)"><g/></g></g><g fill="#ffa500" fill-opacity="1"><g transform="translate(185.913904, 195.682062)"><g/></g></g><g fill="#ffa500" fill-opacity="1"><g transform="translate(191.956384, 195.682062)"><g/></g></g><g fill="#ffa500" fill-opacity="1"><g transform="translate(204.041344, 195.682062)"><g/></g></g><g fill="#ffa500" fill-opacity="1"><g transform="translate(210.083825, 195.682062)"><g/></g></g><g fill="#ffa500" fill-opacity="1"><g transform="translate(216.126305, 195.682062)"><g/></g></g><g fill="#ffa500" fill-opacity="1"><g transform="translate(222.168785, 195.682062)"><g/></g></g><g fill="#ffa500" fill-opacity="1"><g transform="translate(228.215663, 195.682062)"><g><path d="M 6.28125 -15.640625 L 0.296875 -15.640625 L 0.296875 -17.765625 L 14.734375 -17.765625 L 14.734375 -15.640625 L 8.6875 -15.640625 L 8.6875 0 L 6.28125 0 Z M 6.28125 -15.640625 "/></g></g></g><g fill="#ffa500" fill-opacity="1"><g transform="translate(243.249354, 195.682062)"><g><path d="M 15.875 -17.765625 L 15.875 -6.234375 C 15.875 -4.265625 15.25 -2.65625 14 -1.40625 C 12.757812 -0.15625 11 0.46875 8.71875 0.46875 C 6.582031 0.46875 4.910156 -0.109375 3.703125 -1.265625 C 2.492188 -2.421875 1.890625 -3.96875 1.890625 -5.90625 L 1.890625 -17.765625 L 4.25 -17.765625 L 4.25 -6.59375 C 4.25 -4.957031 4.65625 -3.722656 5.46875 -2.890625 C 6.289062 -2.066406 7.390625 -1.65625 8.765625 -1.65625 C 10.234375 -1.65625 11.378906 -2.066406 12.203125 -2.890625 C 13.023438 -3.722656 13.4375 -4.9375 13.4375 -6.53125 L 13.4375 -17.765625 Z M 15.875 -17.765625 "/></g></g></g><g fill="#ffa500" fill-opacity="1"><g transform="translate(260.965905, 195.682062)"><g><path d="M 4.40625 -9.6875 L 9.96875 -9.6875 C 11.257812 -9.6875 12.179688 -9.945312 12.734375 -10.46875 C 13.296875 -11 13.578125 -11.757812 13.578125 -12.75 C 13.578125 -13.65625 13.335938 -14.375 12.859375 -14.90625 C 12.378906 -15.4375 11.550781 -15.703125 10.375 -15.703125 L 4.40625 -15.703125 Z M 4.40625 0 L 2 0 L 2 -17.765625 L 10.21875 -17.765625 C 12.132812 -17.765625 13.582031 -17.359375 14.5625 -16.546875 C 15.539062 -15.734375 16.03125 -14.546875 16.03125 -12.984375 C 16.03125 -11.960938 15.832031 -11.109375 15.4375 -10.421875 C 15.050781 -9.742188 14.429688 -9.179688 13.578125 -8.734375 C 14.304688 -8.472656 14.832031 -8.101562 15.15625 -7.625 C 15.476562 -7.144531 15.660156 -6.398438 15.703125 -5.390625 L 15.875 -2.078125 C 15.882812 -1.523438 15.96875 -1.140625 16.125 -0.921875 C 16.28125 -0.703125 16.5 -0.53125 16.78125 -0.40625 L 16.78125 0 L 13.8125 0 C 13.65625 -0.445312 13.546875 -1.117188 13.484375 -2.015625 C 13.421875 -2.921875 13.390625 -3.734375 13.390625 -4.453125 C 13.390625 -4.816406 13.359375 -5.1875 13.296875 -5.5625 C 13.234375 -5.945312 13.09375 -6.289062 12.875 -6.59375 C 12.65625 -6.90625 12.332031 -7.15625 11.90625 -7.34375 C 11.488281 -7.53125 10.925781 -7.625 10.21875 -7.625 L 4.40625 -7.625 Z M 4.40625 0 "/></g></g></g><g fill="#ffa500" fill-opacity="1"><g transform="translate(278.634117, 195.682062)"><g><path d="M 10.890625 -7.296875 L 8.265625 -15.125 L 8.21875 -15.125 L 5.359375 -7.296875 Z M 4.625 -5.171875 L 2.765625 0 L 0.296875 0 L 6.984375 -17.765625 L 9.703125 -17.765625 L 16.140625 0 L 13.515625 0 L 11.765625 -5.171875 Z M 4.625 -5.171875 "/></g></g></g><g clip-path="url(#181fedb18d)"><path fill="#1e90ff" d="M 177.402344 173.855469 L 179.292969 171.867188 C 180.398438 170.761719 182.261719 171.144531 182.261719 171.144531 L 187.792969 171.902344 L 190.597656 169.160156 C 192.070312 167.710938 193.402344 169.925781 192.824219 170.691406 L 191.386719 172.363281 L 197.34375 173.46875 L 199.363281 171.109375 C 201.527344 168.527344 203.132812 170.855469 202.160156 172.222656 L 200.851562 173.878906 L 209.800781 175.042969 C 217.496094 167.640625 220.640625 164.566406 222.664062 166.390625 C 224.703125 168.226562 221.097656 171.890625 214.085938 179.113281 L 215.359375 188.332031 L 217.234375 186.769531 C 218.34375 185.847656 220.308594 187.328125 218.277344 189.25 L 215.699219 191.683594 L 216.785156 197.71875 L 218.398438 196.480469 C 219.820312 195.347656 221.550781 196.847656 219.625 198.902344 L 217.066406 201.480469 C 216.960938 201.558594 217.902344 206.773438 217.902344 206.773438 C 218.480469 209.332031 217.039062 210.265625 217.039062 210.265625 L 215.28125 211.796875 L 208.601562 192.929688 C 208.046875 191.269531 206.644531 189.464844 204.300781 189.679688 C 203.0625 189.8125 199.933594 191.925781 199.511719 192.425781 L 192.269531 199.390625 C 192.082031 199.523438 193.382812 208.445312 193.382812 208.445312 C 193.382812 208.710938 191.085938 211.722656 191.085938 211.722656 L 186.496094 203.550781 L 184.226562 204.605469 L 185.554688 202.542969 L 177.289062 197.875 L 180.386719 195.609375 C 181.863281 195.953125 189.601562 196.824219 189.757812 196.746094 C 189.757812 196.746094 196.0625 190.496094 196.421875 190.117188 C 198.503906 187.929688 199.203125 187.113281 199.519531 186.03125 C 199.835938 184.949219 199.296875 183.367188 196.027344 181.359375 C 191.523438 178.59375 177.402344 173.855469 177.402344 173.855469 Z M 177.402344 173.855469 " fill-opacity="1" fill-rule="nonzero"/></g></svg>